<svg id="Layer_1" data-name="Layer 1" xmlns="http://www.w3.org/2000/svg" viewBox="0 0 422 471.85" height="57"><path d="M-169,273.88c-3.67,14.13-7.44,28.24-11,42.4q-15.39,61.23-30.61,122.51A68.83,68.83,0,0,1-230,472.5a8.63,8.63,0,0,0-2.94,8.28q6.33,46.28,12.45,92.57c.57,4.29,1.29,8.57,1.62,12.89.92,12-6.06,21.75-16.77,23.66-11.72,2.09-22.1-4.73-25.17-16.76-5.77-22.57-11.41-45.16-17.11-67.75-2.69-10.64-5.38-21.28-8.14-32.17H-474c-3,11.55-6,23.26-8.94,35-5.44,21.45-10.81,42.91-16.26,64.36-3.2,12.58-13.25,19.47-25.16,17.34-11.28-2-18.39-12.23-16.75-25q6.59-51.29,13.67-102.49c.58-4.22.22-7.29-3.23-10.56a65.68,65.68,0,0,1-18.56-32.5Q-569.51,358-589.95,276.63a24.24,24.24,0,0,0-1-2.75v-9c4.85-14.75,14.41-23,30.56-22.75,1.2,0,3.15-2.09,3.56-3.54,4.12-14.4,8-28.86,11.91-43.31,9.46-35,37.26-56.53,73.51-56.74,23.49-.14,47,0,70.47,0,39.15,0,78.3-.35,117.44.3,30.62.5,57.56,21.39,66.67,50.77,5,16,9.12,32.34,13.41,48.58.84,3.19,2.16,4.28,5.41,4.21,11-.2,19.7,4.29,25.3,14a82.55,82.55,0,0,1,3.76,8.53ZM-380,362c37.66,0,75.31-.08,113,.11,4.3,0,5.93-1.3,7-5.4,8.14-31.07,16.57-62.05,24.83-93.08,2.08-7.82,6.35-13.92,13.47-17.75,2.51-1.34,3.23-2.66,2.45-5.46-4.09-14.57-7.77-29.27-12-43.8-7.33-25-28.59-41.72-54.7-41.85q-94-.48-188,0c-26.09.13-47.41,16.83-54.71,41.84-4.24,14.53-8,29.21-12,43.81-.64,2.31-.72,3.88,1.95,5.23,7.58,3.83,11.88,10.23,14.05,18.43,8.16,30.89,16.59,61.7,24.7,92.6,1.06,4,2.62,5.45,7,5.43C-455.34,361.89-417.68,362-380,362Zm-.08,114.92c32.66,0,65.32.28,98-.21a67.57,67.57,0,0,0,23.8-4.45c17.28-6.95,28-20.15,32.56-38.42q19.88-80.19,39.94-160.33c2.23-8.95-2.55-15.15-11.74-15.4a88.35,88.35,0,0,0-9.49.17c-8.23.65-10.79,2.82-12.89,10.65Q-237.48,334.48-255,400.05c-5.76,21.64-19.44,32.25-42,32.3-16.67,0-33.33,0-50,0q-58,0-116,0c-22.24,0-36.08-10.61-41.79-31.92Q-521.46,338-538.12,275.55c-4.5-16.83-5.55-17.64-22.8-17.42-10.81.13-15.56,6.12-13,16.56q19.65,78.69,39.4,157.37c7.35,29.22,27.63,44.82,57.9,44.83Q-428.33,476.92-380.1,476.9ZM-494,378.22c1.56,5.88,3,11.49,4.54,17.09,4.28,15.76,11.28,21.16,27.45,21.17h164a56,56,0,0,0,7-.32c8.87-1.11,15.36-5.85,18.39-14.15,2.78-7.61,4.49-15.61,6.77-23.78Zm-17.87,108c-3.39,25.28-6.76,50.35-10.12,75.42-1.14,8.58-2.24,17.17-3.37,25.75-.43,3.2.47,5.76,3.84,6.55,3.57.83,5.67-1.05,6.6-4.43.26-1,.57-1.92.81-2.89q8.42-33.12,16.81-66.26c2.34-9.28,4.62-18.57,6.87-27.61Zm242.11,6.58,18.19,72.11,6,23.71c.85,3.36,2.37,6.09,6.42,5.5s4.67-3.67,4.25-7.15c-.2-1.65-.37-3.31-.59-5q-3.77-28.23-7.54-56.45c-1.76-13.11-3.54-26.23-5.31-39.28Z" transform="translate(591 -138.43)"/></svg>