<svg id="Layer_1" data-name="Layer 1" xmlns="http://www.w3.org/2000/svg" viewBox="0 0 491.31 385.03" height="57"><path d="M-878,352.89c1.67-11.15,2.49-22.52,5.2-33.41,5.41-21.77,10.27-43.9,18.34-64.73,8-20.55,24.47-33.25,47.25-36a76.7,76.7,0,0,1,9-.29q163,0,326-.08c27.87,0,46.39,13.81,57.26,38.22,12.29,27.58,21.57,56.23,26.42,86.15,3.34,20.62,2.9,40.63-7.18,59.84-6.79,12.93-11.95,26.7-18.25,39.91a61,61,0,0,1-18.49,22.63c-2.3,1.74-2.36,3.35-1.81,5.94q11.4,52.95,22.54,106c2.61,12.3-2.63,22.38-13.26,25.49s-20.41-2.24-25.08-14.08c-14-35.44-28-70.87-41.79-106.38-1.44-3.71-3.16-4.95-7.18-4.95q-132.75.19-265.49,0c-4,0-5.81,1.15-7.25,4.87-13.87,35.67-28,71.24-41.92,106.87-3.43,8.77-9.34,14.09-19,14.36a19.51,19.51,0,0,1-19.62-23.73q11.25-53.76,22.87-107.43c.73-3.4.18-5.43-2.61-7.61-9.53-7.45-16.06-17.25-21-28.17-6-13.35-12.4-26.56-17.72-40.18-3.28-8.4-4.88-17.46-7.23-26.22Zm420.14,30.59c17.4,1.47,33.25,5,43.72,19.81,10.81-17.05,13.77-35,10.6-54.39-4.83-29.61-14.11-57.81-25.48-85.41-7.9-19.17-22.78-29-43.43-29H-797.89a67.83,67.83,0,0,0-7,.16c-16.88,1.79-29.13,11.27-34.85,26.34-11.64,30.72-19.47,62.54-21.95,95.53-1.29,17.18,3.81,32.42,12.16,47.23,10.45-15.27,26.41-18.7,43.06-20.21,1.6-13.41.49-46.63-5.3-58.55-2.37-4.89-.31-9.41,4.12-11.14s8.95,0,10.55,5.42c2.5,8.41,5,17,5.92,25.66,1.35,12.53,1.31,25.22,1.88,38.21h315.36c0-7.51-.24-14.82.05-22.1.56-14.33,1.63-28.63,7.22-42.1,2.12-5.1,6.47-7,10.83-5.09,4.19,1.82,5.8,6,4,10.87C-458.81,343.6-458,363.26-457.86,383.48Zm-174.14,16c-53,0-106-.07-159,.06-11.43,0-23-.57-33.95,4.12-11.27,4.83-16.76,15.38-12.78,26.82,5,14.23,20.59,31.34,40.85,30.81,10.32-.26,20.65,0,31,0,98.31,0,196.63-.19,294.94.17,19,.08,32-8.25,41.51-23.66,9.9-16.13,4.05-31.43-14.39-35.62-9.45-2.15-19.45-2.5-29.21-2.55C-526,399.33-579,399.45-632,399.45Zm155.77,78.35c.63,1.81,1.11,3.36,1.7,4.86q16.06,40.88,32.16,81.74c2.5,6.34,4.76,12.79,7.61,19,.76,1.64,3.36,3.58,5,3.45,3.33-.26,3-3.3,2.58-5.88-.05-.32-.17-.64-.24-1q-7.89-37.1-15.78-74.21c-2.17-10.21-4.42-20.4-6.52-30Zm-337.69-2.06L-829,546.1c-2.54,11.86-5.21,23.7-7.48,35.61-.29,1.56,1.43,3.51,2.21,5.28a41.25,41.25,0,0,0,5.1-2.82c.68-.5.78-1.79,1.14-2.71q19.44-49.4,38.88-98.79c.63-1.6,1.1-3.27,1.63-4.89Z" transform="translate(878 -218.39)"/></svg>