<svg id="Layer_1" data-name="Layer 1" xmlns="http://www.w3.org/2000/svg" viewBox="0 0 480 418.57" height="57"><path d="M-337,270.86v263c-.65,1.68-1.29,3.37-2,5-4.36,11-15.17,17.31-27.19,16a25.31,25.31,0,0,1-21.78-21.64c-3.8-30.41-7.42-60.84-11.14-91.25-1.3-10.67-2.68-21.32-4-31.81H-434.4v6.24c0,30.5,0,61-.05,91.5a38.25,38.25,0,0,1-1.14,10.37,22.87,22.87,0,0,1-23,16.4c-10.78-.66-19.93-8.29-21.43-19-2.95-21.11-5.34-42.29-8-63.45q-2.6-21-5.16-42h-167.7c-2.09,17.22-4.1,34.08-6.18,50.94-2.26,18.35-4.34,36.72-7,55-1.24,8.6-6.86,14.35-15,17.18-8.41,2.93-16.11,1.12-22.79-4.71-6-5.22-7.81-12.08-7.79-19.76q.11-46.5,0-93v-5.78H-751c-1.68,13.75-3.34,27.3-5,40.84-3.35,27.44-6.49,54.91-10.12,82.32-1.45,10.92-8.19,18-18.84,21A24.68,24.68,0,0,1-811.56,545c-2.35-3.32-3.66-7.38-5.44-11.1v-263a15.25,15.25,0,0,0,.91-2.24c3.38-14.28,13.55-24.47,28.1-26,7.13-.74,14.53,1.32,22,2.13,0-16.25-.05-33.57,0-50.89.13-32.86,24.22-57.15,57.13-57.19q132-.16,263.91,0c32.88,0,56.85,24.37,57,57.34.06,16,0,32,0,48,0,1.38.18,2.76.29,4.49l3.68-1.61a33.42,33.42,0,0,1,45.86,22.19C-337.79,268.36-337.38,269.61-337,270.86Zm-413,54.66h346v-4.8q0-63.24,0-126.5c0-24.5-17-41.52-41.49-41.53q-131.47-.09-263,0c-24.54,0-41.52,17-41.56,41.47q-.06,40.24,0,80.5Zm396.91,68.12c0-12.58.19-24.57-.06-36.56-.21-10-5.78-15.2-15.85-15.2q-207.91,0-415.82,0c-10.57,0-15.94,5.27-16.1,16s-.05,21.65,0,32.48a25.8,25.8,0,0,0,.42,3.28Zm-447.63,16.49c-.08,1.22-.18,2-.18,2.84q0,57.45,0,114.9a17.41,17.41,0,0,0,.17,3,9.47,9.47,0,0,0,9.28,8.18c4.82.09,8.5-2.86,9.53-7.79.44-2.11.65-4.28.92-6.42q3.29-27,6.56-54c2.43-20.13,4.85-40.27,7.31-60.68Zm413.81,0c3.85,31.57,7.63,62.61,11.43,93.65,1.11,9.09,2.13,18.18,3.45,27.24a9.06,9.06,0,0,0,9.82,8,9.54,9.54,0,0,0,9-8.46A25.39,25.39,0,0,0-353,527q0-56.44,0-112.89c0-1.28-.16-2.56-.26-4ZM-766,325.22c0-16.42.06-32.86,0-49.29-.05-10-7.39-17.69-17-17.94a17.44,17.44,0,0,0-17.83,17.62c-.19,17.13,0,34.26,0,51.39,0,.56.2,1.12,0,.35Zm378.14,0,34.75,2.12c0-16.85.22-34.68-.09-52.49A17.25,17.25,0,0,0-370.33,258c-8.94-.17-17.2,6.74-17.43,15.87C-388.19,291-387.88,308.12-387.88,325.22ZM-703.3,410.1c-.12,1.3-.29,2.27-.29,3.24q0,48.15,0,96.32a13.3,13.3,0,0,0,.62,4.41c1.8,5,8.51,6.27,11.68,2.09a13.8,13.8,0,0,0,2.17-6.45c2.68-21.11,5.23-42.24,7.79-63.36,1.46-12,2.85-24,4.31-36.25Zm226.52,0a26.63,26.63,0,0,0,0,2.88q4.42,36.63,8.9,73.27c1,8.41,2,16.84,3.1,25.24.63,4.64,3.64,7.57,7.44,7.2,4.24-.41,6.49-3,6.86-7.23.08-1,.06-2,.06-3V410.06Z" transform="translate(817 -136.62)"/></svg>