<svg id="Layer_1" data-name="Layer 1" xmlns="http://www.w3.org/2000/svg" viewBox="0 0 428.64 486" height="57"><path d="M-257,92.89h4c5,2.08,6.52,6,6.35,11.19-.26,8.56-.07,17.15-.07,25.69.77,0,1,.07,1.07,0,1-1.08,2-2.16,3-3.29,10.61-12.53,24.07-20.86,39.35-26.41,4.85-1.76,9.2.07,10.9,4.2,1.8,4.36-.23,8.53-5.29,10.79-.91.4-1.87.69-2.8,1.06-15.4,6.21-28.24,15.59-36.72,30.17-4.87,8.38-8.19,17.29-8.82,27.58,8.42,0,16.39-.05,24.36,0,6.49,0,9.36,2.94,9.51,9.5.09,3.67,0,7.33,0,11V212.5c12.35,1.18,24,2.1,35.52,3.42,29,3.31,57.64,8.29,85.29,18,14,4.91,27.61,10.82,38.95,20.79,7.69,6.75,12.78,14.85,12.69,25.51-.08,9.5-.31,19-.07,28.49a28.63,28.63,0,0,1-9.12,22.43c-5,4.75-10.46,9.62-16.61,12.57-12.39,5.95-25.44,10.54-38.12,15.92a14.82,14.82,0,0,0-6.43,4.8c-19.48,29.63-38.72,59.41-58.18,89.06-1.88,2.87-1.88,4.56.38,7.26q42.95,51,85.64,102.31c5.91,7.07,5.51,10.67-1.78,15.88H-424c-7.28-5.23-7.71-8.83-1.81-15.89q42.62-51,85.33-101.93c2.48-2.95,2.62-4.88.5-8.1q-28.11-42.78-55.83-85.82c-2.87-4.46-6-7.51-11.36-8.63a87.45,87.45,0,0,1-14.17-4.77c-13.83-5.46-27.34-11.55-37.84-22.59-6-6.28-9.33-13.57-9-22.5a248,248,0,0,0,0-25c-.82-12.46,4.28-21.9,13.45-29.65,11.26-9.52,24.49-15.33,38.21-20.12,30.52-10.67,62.22-15.65,94.22-19,8.37-.88,16.78-1.51,25.37-2.28V191.19c0-17.29,0-17.34,17.11-17.34h14.83c-4-12-12.41-21.34-26.1-29.22-5.53-3.19-7.25-7.45-4.75-11.82s7.09-5.43,12.54-2c6.95,4.39,13.54,9.35,20.43,14.17.07-1.26.23-2.85.23-4.43,0-12,.19-24-.07-36C-262.91,99.45-261.41,95.56-257,92.89Zm44.82,135c0,10.5.22,19.47,0,28.42-.67,22.79-17.5,40.45-39.63,41.84-22.31,1.4-41.28-13.78-44.64-36.32-1-6.7-.43-13.63-.52-20.46-.06-4.08,0-8.17,0-12.56-38.89,2.85-76.65,7.49-113.07,19.78-12,4.06-23.81,8.72-33.77,16.85-11.15,9.1-11.32,18,.23,26.49a110,110,0,0,0,23,12.87c35.36,14.49,72.74,19.82,110.48,23.07a675.71,675.71,0,0,0,98.88,1c35.47-2.14,70.61-6.68,104.74-17.07,15-4.56,29.78-9.8,42.24-19.77,11.21-9,11.46-17.89,0-26.5a109.54,109.54,0,0,0-22-12.51c-19.32-8.41-39.75-13.38-60.49-16.58C-168.22,233.11-189.73,230.77-212.18,227.88Zm-41.89,327.94c.79-1.06,1.1-1.43,1.37-1.84q30.24-46.47,60.54-92.9c1.83-2.79.36-4.17-1.14-6q-22.77-27.21-45.52-54.45c-5-6-10-11.88-15-17.87a16.88,16.88,0,0,0-1.51,1.33q-30,35.85-60,71.65c-2.07,2.44-1.22,3.93.15,6Q-297,489.61-279,517.48Zm15.08,6.56h135.45l-76.21-91.13Zm-29.78.22-59.4-91.34-76.36,91.34Zm212.5-256.41c-16.27,11.36-34,17.77-52.4,22.81-37.13,10.19-75.11,14.56-113.45,16.27-53,2.35-105.57-.45-157.54-11.47-25.15-5.33-49.74-12.43-71.42-27.06-.14-.1-.54.19-.84.31-1.36,7,1.84,12.49,7.22,15.83,9.4,5.86,19,11.9,29.26,15.78,39.19,14.79,80.33,19.74,121.83,22.18a671.26,671.26,0,0,0,105.34-2c30.71-3,61.05-8,90.35-18,12.31-4.23,24.34-9.13,34.49-17.61C-58.38,319-54.62,314.07-56.27,306.19ZM-280.85,190c0,23.4-.29,46.36.26,69.3.11,4.42,2.83,9.28,5.57,13,6.54,8.92,18.25,12.06,28.68,8.6,10.88-3.6,18-13.39,18.13-25.51.16-20.82.05-41.64,0-62.46a18.62,18.62,0,0,0-.48-3Zm44.92,189.18,54.58,65.27c16.92-26,33.52-51.53,49.67-76.36ZM-376.29,368q24.45,37.59,49.67,76.32l54.52-65.24Z" transform="translate(468.35 -92.89)"/></svg>