<svg id="Layer_1" data-name="Layer 1" xmlns="http://www.w3.org/2000/svg" viewBox="0 0 466 476" height="57"><path d="M-881,667.89h-9c-15.25-6.59-20.49-14.87-17.93-29,5.44-29.91,11-59.78,16.54-89.68,1.89-10.24,3.72-20.5,5.68-31.32-5,0-9.49.07-13.95,0a48.34,48.34,0,0,1-45.11-34c-.81-2.66-1.49-5.36-2.23-8v-201a7.63,7.63,0,0,0,.83-1.73c4.25-21.51,18.67-36.47,40-39.53,10.61-1.51,21.56-.72,32.36-.75,3,0,4.25-.71,4.94-3.9,2.51-11.66,8.47-21.56,18.59-27.89,6.46-4.05,14.12-6.2,21.24-9.2h218a5.46,5.46,0,0,0,1.31.68c20.87,4.19,33.79,16.7,38.69,37.35.73,3.11,2.52,2.9,4.71,2.9,12.47,0,24.93-.13,37.4.05,22.58.33,41.13,15.32,46.44,37.3.46,1.91,1,3.81,1.45,5.72v199a10,10,0,0,0-.77,1.83c-5.3,26.31-23.42,41.18-50.26,41.2h-19.28c.25,2.12.37,3.76.66,5.37q10.71,57.88,21.45,115.77c2.4,13-3.64,23.3-16.14,27.86a11.52,11.52,0,0,0-1.66,1h-9c-11-3.12-16.54-10.88-19.84-21.56-12.72-41.15-26-82.12-38.84-123.22-1.26-4-2.91-5.3-7.14-5.29q-96.95.23-193.89.11h-5c-.74,2.13-1.46,4-2.06,5.88-12.91,40.73-26,81.41-38.59,122.25C-864.69,656.71-870.1,664.52-881,667.89Zm383.87-300.73v-5q0-39.48,0-79c0-20.94-13.45-34.35-34.42-34.36q-182.43,0-364.86,0c-21.21,0-34.49,13.42-34.51,34.75q0,39.24,0,78.47v5.12Zm-433.8,16.58v5.63q0,38.75,0,77.48c0,21.89,13.25,35.07,35.21,35.07h363.38c22,0,35.19-13.19,35.21-35.1q0-38.73,0-77.47v-5.61Zm343.68-151.18c-1.39-13.15-14.66-24.56-29.27-24.59q-103.46-.19-206.89.05c-13.41,0-22.83,7.28-28.33,19.47a35.76,35.76,0,0,0-1.42,5.07Zm-12,285.61c.53,2.07.9,3.83,1.44,5.54q12.72,40.18,25.49,80.36,6.64,20.92,13.25,41.85c1.34,4.27,4.15,6.62,8.58,5.71s6.2-4.14,5.62-8.62c-.13-1-.26-2-.44-3q-8.86-48.1-17.74-96.21c-1.59-8.6-3.26-17.19-4.87-25.67ZM-869,517.93c-.39,1.21-.67,1.82-.79,2.46q-7.5,40.5-15,81-3.79,20.63-7.46,41.27c-.74,4.11.48,7.29,4.86,8.51,4,1.11,7.5-.84,9.11-4.94.37-.93.61-1.9.92-2.85L-845,541.11c2.4-7.57,4.77-15.14,7.23-23-1.74-.1-2.89-.21-4-.22Z" transform="translate(947 -191.89)"/><path d="M-695.72,308.05a24.09,24.09,0,0,1-24.65,24,24.09,24.09,0,0,1-23.91-24.28,24.13,24.13,0,0,1,24.4-24.32A24.13,24.13,0,0,1-695.72,308.05ZM-719.83,316a8.06,8.06,0,0,0,8.07-8.31,8.15,8.15,0,0,0-8.17-8.25,8.15,8.15,0,0,0-8.31,8.59A8.05,8.05,0,0,0-719.83,316Z" transform="translate(947 -191.89)"/><path d="M-720.24,418.72a24.07,24.07,0,0,1,24.52,24.16A24.19,24.19,0,0,1-720,467.34a24.2,24.2,0,0,1-24.28-24A24.09,24.09,0,0,1-720.24,418.72Zm.16,32.45a8,8,0,0,0,8.32-8,8,8,0,0,0-7.92-8.44,8,8,0,0,0-8.56,8.28A8.05,8.05,0,0,0-720.08,451.17Z" transform="translate(947 -191.89)"/></svg>