<svg id="Layer_1" data-name="Layer 1" xmlns="http://www.w3.org/2000/svg" viewBox="0 0 380 465.44" height="57"><path d="M-292,601.89c-8.12-3.74-9.21-7.71-3.8-15,21.24-28.71,49.58-45.19,85.15-49,3.21-.34,4.2-1.44,4.19-4.59q-.14-43.47,0-86.94c0-3.07-1-4.06-4-4.81-24.44-5.9-39.83-21.11-45.33-45.75-.87-3.88-2.92-3.66-5.65-3.66-38.8,0-77.61-.06-116.41.09-5.22,0-9.06-1.31-11.1-6.33v-2a8,8,0,0,0,.77-1.27q43.08-119.17,86.14-238.37c2.5-6.9,3.69-7.79,10.87-7.79q92.22,0,184.44,0c7.18,0,8.37.89,10.87,7.8Q-68.48,220-41,295.79q16,44.07,32.05,88.1v2c-2.05,5-5.86,6.49-11.1,6.33-9.49-.29-19-.08-28.49-.08h-6.36v83.18c15.86,8.32,22,19.05,18.85,32.93A27.22,27.22,0,0,1-61.66,529.1a27.22,27.22,0,0,1-27.17-19.39,26.81,26.81,0,0,1,.76-17.63c3.29-8.47,9.79-13.54,17.7-16.57V392.74a6.35,6.35,0,0,0-1.62-.53c-22.16,0-44.32-.1-66.47.09-1.2,0-3.11,2.09-3.45,3.5-5.93,24.53-21.05,39.87-45.55,45.74-3.06.73-4.1,1.68-4.09,4.79q.15,43.47,0,87c0,3.15,1,4.26,4.2,4.59,35.6,3.74,63.9,20.3,85.16,49,5.4,7.28,4.3,11.33-3.82,15ZM-370.24,376.8H-27.93c-.51-1.67-.83-2.94-1.27-4.16q-39.22-108.4-78.36-216.83c-1.39-3.88-3.43-4.42-7-4.41q-84.48.12-169-.06c-4.39,0-6,1.63-7.32,5.39q-31.41,87.35-63.06,174.6C-359.28,346.32-364.66,361.32-370.24,376.8Zm247.49,209.31c-39.13-45.45-114.36-44.72-152.41,0ZM-240.81,392.38c1.45,19.65,22.33,36.33,43.71,35.41,20-.87,39.84-18.46,39.73-35.41ZM-62.87,514.09A12.17,12.17,0,0,0-50.4,501.9a12.17,12.17,0,0,0-12.05-12.11A12.25,12.25,0,0,0-74.93,502,12.19,12.19,0,0,0-62.87,514.09Z" transform="translate(389 -136.45)"/></svg>