<svg id="Layer_1" data-name="Layer 1" xmlns="http://www.w3.org/2000/svg" viewBox="0 0 512 512" height="57"><defs><style>.cls-1{fill:#fff;}</style></defs><path d="M-307,120.56c1.31.61,2.6,1.27,3.94,1.82,9.94,4.12,15.93,11.45,17.05,22.15,1.18,11.29-3.47,19.89-12.93,26.28-8.09,5.46-16.55,10.73-23.46,17.5-11.78,11.54-12.45,26.57-10.29,42,2.87,20.54,12.36,36.65,30.67,47.17a46.77,46.77,0,0,1,8.67,6.71,9.66,9.66,0,0,1,1.15,12.77c-2.76,3.93-8.38,5.77-12.41,3.09-15.13-10-30.73-19.87-38.68-37.26-10.27-22.48-14.78-45.72-5.56-69.68,6.59-17.14,19.86-28.42,35.45-37.25,1.6-.9,3.8-1.41,4.65-2.77,1.37-2.21,2.88-5.2,2.39-7.43-.44-2-3.39-3.57-5.51-4.89-1-.61-2.61-.18-3.94-.18q-82.74,0-165.5,0a16.31,16.31,0,0,0-5.86.7,6.7,6.7,0,0,0-1,12c6.54,4.09,12.91,7.78,21.55,7.49,22.14-.74,44.32-.27,66.49-.23,6.43,0,10.51,3.09,11.28,8.31,1,6.74-3.46,11.61-10.93,11.65-16.5.07-33,0-49.5,0h-4.1c3,8.48,7.57,16.51,8.52,24.94,3.79,33.82-3.54,64.5-33.5,84.36-21.3,14.12-31.5,33.5-35.61,57.41-3.93,23-2,45.84,1.18,68.68,8.22,58.65,21,116.24,39.88,172.43,1.9,5.67,4.18,11.22,6.32,16.81,2,5.27,5.58,7.52,11.51,7.48q56.24-.31,112.49,0c5.91,0,9.64-2.26,11.72-7.34,3-7.39,6-14.81,8.45-22.39A940.92,940.92,0,0,0-284,411.23c1.48-11.54,2.17-23.2,2.87-34.83.44-7.27,2.48-11.2,7.56-12.57,4.77-1.27,8.55.75,12.53,6.73v19c-.26,1.11-.61,2.2-.77,3.32-3.75,25.65-6.79,51.42-11.37,76.92A853.4,853.4,0,0,1-308.93,605c-4.52,12.71-11.32,23.26-25.07,27.52H-463c-12.91-3.33-20-12.57-24.76-24.56-1.65,4.43-3.26,8.67-3.81,13-.65,5.23-2.85,9-7.43,11.51H-679c-2.3-2.86-6.15-5.47-6.65-8.61-3.29-20.53-14.17-35.51-30.76-47.6-24.13-17.58-41.65-40.51-50.91-69.15-2.59-8-3.82-16.41-5.68-24.64v-23c.32-1.45.63-2.9,1-4.34,2.54-11.34,4-23,7.81-33.93,12.81-36.68,38.29-62.65,71.8-81.11,12.23-6.73,25.1-12.27,37.54-18.63a47.31,47.31,0,0,0,11.51-7.76c6-5.82,4.22-13.08-3.44-16.26-2-.83-4.11-1.35-6.15-2.06-14-4.9-22.9-19.09-20.77-33.26,2.29-15.3,14.81-26.54,30.29-26.59q54.48-.21,109,0c15.32.06,27.6,10.95,30.17,26.14,2.38,14.05-6.34,28.51-20.27,33.57-2.19.79-4.48,1.32-6.62,2.21-7.63,3.19-9.18,10.31-3.42,16.35,2,2.08,4.57,3.6,7.19,5.62,1-2.3,1.74-4,2.48-5.62,7-15.73,17.12-28.87,32-37.94,15.66-9.51,24.3-23.65,27.73-41.4,5.56-28.73-3.11-47.41-28.77-61.48-1.46-.8-3-1.53-4.36-2.43-9.41-6-13.92-14.65-12.86-25.77,1-11,7.11-18.35,17.21-22.54,1.35-.55,2.66-1.18,4-1.77Zm-314.15,176c4.68,21.29-6.21,33.55-23.35,42.16-8.18,4.11-16.47,8-24.74,11.9-19.61,9.26-37.53,20.86-52.09,37.19-23.17,26-33.48,56.62-31.33,91,1.87,30,16.8,53.93,38.64,73.77,6.77,6.14,14.16,11.62,21.46,17.14a12.78,12.78,0,0,0,6.95,2.7c20.5.21,41,.12,61.5.12q17.25,0,34.49,0c4.62,0,8,2,9.81,6.35,1.67,4,1,8-2.25,10.43a16.28,16.28,0,0,1-9.06,3.07c-26,.23-52,.13-78,.13h-5.53l7.31,19.67h155.51c4.95-9.9,9.57-18.88,13.9-28a9,9,0,0,0,.61-5.92,1006.47,1006.47,0,0,1-35.37-160.2c-3.53-25.34-5.34-50.69-.78-76.14.23-1.31-1.22-3.41-2.48-4.43-4.49-3.66-9.84-6.44-13.79-10.59-14.29-15-9.95-37.82,8.64-46.88,3.12-1.52,6.56-2.38,9.8-3.66,5.11-2,8-6.92,7.14-11.85a10.59,10.59,0,0,0-10.53-8.94q-54.26-.13-108.49,0A10.59,10.59,0,0,0-654,266.41c.06,6,4.52,10.14,11.1,10.15,12.5,0,25,0,37.5,0,6.84,0,11.33,4.07,11.33,10s-4.49,9.91-11.32,10C-610.5,296.61-615.64,296.56-621.15,296.56Z" transform="translate(773 -120.56)"/><path class="cls-1" d="M-463,632.56" transform="translate(773 -120.56)"/><path class="cls-1" d="M-487.76,608" transform="translate(773 -120.56)"/><path d="M-277.19,339a9.84,9.84,0,0,1-9.86-9.82,9.74,9.74,0,0,1,9.7-9.94,10,10,0,0,1,10.21,10A10,10,0,0,1-277.19,339Z" transform="translate(773 -120.56)"/></svg>