<svg id="Layer_1" data-name="Layer 1" xmlns="http://www.w3.org/2000/svg" viewBox="0 0 424 476.27" height="57"><path d="M-785,571.91v-424c2.46-4.95,6.52-6.17,11.86-6.17q200.14.18,400.27,0c5.36,0,9.4,1.24,11.87,6.17v424c-2.57,4.79-6.53,6.62-11.92,6.1-3.38-.33-6.83-.06-10.64-.06,0,9.7,0,18.67,0,27.64,0,10.5-1.94,12.4-12.61,12.4H-749.84c-1.16,0-2.33,0-3.49,0-5.94-.17-8.91-2.92-9-8.9-.18-7.32-.06-14.65-.06-22V578c-4,0-7.35-.26-10.64.06C-778.47,578.53-782.45,576.72-785,571.91Zm16.94-290.63h389.91V158.34H-768.06Zm.08,17.2v122.6h389.85V298.48Zm.05,139.85V561.39h389.87V438.33Zm367.81,140H-745.71v23.1h345.59Z" transform="translate(785 -141.72)"/><path d="M-652.9,198.68V183.15h159.63v15.53Z" transform="translate(785 -141.72)"/><path d="M-493.09,323.12v15.54H-652.74V323.12Z" transform="translate(785 -141.72)"/><path d="M-652.91,478.63V463.09h159.65v15.54Z" transform="translate(785 -141.72)"/></svg>