<svg id="Layer_1" data-name="Layer 1" xmlns="http://www.w3.org/2000/svg" viewBox="0 0 392.05 512" height="57"><path d="M-224,63.89c4.75.67,9.51,1.27,14.24,2,40,6.35,72.73,25.72,99.27,55.89,23.21,26.37,38.28,57.1,44,91.58,12.06,73-7,136.29-62.79,186.63a148.63,148.63,0,0,1-60,32.68c-4.18,1.17-5,3-4.58,6.95,2.67,27.35,5.09,54.73,7.69,82.09,2.51,26.36-12.83,47.63-38.5,53.25a14.26,14.26,0,0,0-2.28.91h-13c-8.65-2.46-17.18-5.16-24.1-11.31-12.13-10.8-17.91-24.38-16.59-40.5,2.2-26.89,4.86-53.74,7.41-80.61.87-9.06.95-8.93-7.76-11.77-36.29-11.82-65-34-86.85-65C-396.6,326-408,280.28-402.82,230.93c5.71-54.68,29.36-100.26,73.31-134.13a153.21,153.21,0,0,1,83.62-32.15,33,33,0,0,0,3.89-.76ZM-387.18,257c1,7.5,1.71,20.55,4.4,33.19,9.56,44.79,32.07,81.49,70.34,107.51a141.08,141.08,0,0,0,177.12-14.86c31.82-30.3,49.69-67.6,54.24-111.08,4.77-45.58-5.1-87.9-31.87-125.4-27.13-38-63.49-61.21-110.85-64.68-42.12-3.09-78.37,11.26-108.66,40C-369.51,156.75-385.95,201-387.18,257ZM-255.52,438.6a1,1,0,0,0-.28.55c-2.69,29.15-5.45,58.3-7.94,87.48a28.48,28.48,0,0,0,6.43,20.47,30.25,30.25,0,0,0,35,9.6c13.24-5.22,20.51-18,19.08-33.35-1.68-18.06-3.27-36.12-4.94-54.18-1-10.38-2-20.75-3-30.57Z" transform="translate(455.1 -63.89)"/><path d="M-410,63.89c4.27,2.48,5.78,6.25,6.23,11.11,1.15,12.44,10.69,21.63,23.23,22.81,4.18.39,8,1.25,9.82,5.53,2.27,5.19-1.12,10.8-7.22,11.54s-12.09,2.1-17,6.35c-5.71,5-8.52,11.24-9.13,18.74-.51,6.32-4.23,9.59-9.61,9-4.44-.51-6.86-3.32-7.46-9.1-1.22-11.75-7.08-19.85-18.43-23.57a44.78,44.78,0,0,0-7.36-1.3c-5.24-.79-8.16-3.75-8.19-8.38s3.19-7.45,8.56-8.74,10.69-2.65,15.18-5.4c6.42-3.92,9.55-10.61,10-18.1.3-4.82,2.21-8.2,6.34-10.47ZM-419.71,106l6.64,7.88,7.54-6.42-7.28-8.54Z" transform="translate(455.1 -63.89)"/><path d="M-97,258.34c-.87,38.43-15.61,77.65-47.77,109.92C-187,410.68-254,417.34-303.22,383.32c-37.81-26.15-58.33-63-64.81-108-5.45-37.84,1-73.72,20.11-106.88,19.64-34.09,47.93-58,86.73-67s74.58-.44,105.62,24.41C-117.33,156.46-96.9,201.58-97,258.34Zm-80.38-127.17c-2.86-1.62-5.11-3-7.46-4.2a108.18,108.18,0,0,0-126.5,21.31c-22.71,23.23-36.24,50.89-39.94,83-6,52.29,8.66,97.27,49.45,132,39.09,33.29,98.41,32.71,137.56-.54,27.68-23.51,43.31-53.45,48.51-89.11q8-54.8-21.16-101.93a38.51,38.51,0,0,0-2.38-3.09c-14.43,12-28.49,23.77-42.6,35.47a31.32,31.32,0,0,1-5.71,4c-3.61,1.8-6.9.67-9.45-2.18a7.59,7.59,0,0,1-.85-9.69,19.19,19.19,0,0,1,4.1-4.3q20.11-16.86,40.3-33.63c1.33-1.11,2.59-2.31,4.22-3.77l-13.74-13-42.43,35.35c-1.15,1-2.28,1.94-3.45,2.88-5.47,4.4-10.78,4.51-14.06.31s-2.3-8.89,3-13.36c8.43-7.06,16.9-14.07,25.35-21.11C-188.95,140.9-183.38,136.23-177.34,131.17Z" transform="translate(455.1 -63.89)"/><path d="M-284.62,302.77c-4.34,0-7.39-3.41-8.5-8.28-1.61-7.05-2.69-14.53-5.9-20.86-6.61-13.07-18.14-19.91-32.67-21.63-1.66-.2-3.34-.2-5-.54-4.93-1-7.56-4.09-7.48-8.52s2.79-7.05,7.78-8.26c7.2-1.74,14.86-2.76,21.33-6.05,12.47-6.33,19.41-17.28,21.26-31.26.24-1.82.46-3.64.7-5.45.71-5.26,3.66-8.25,8.24-8.36,4.77-.12,7.93,3,8.79,8.4.72,4.59,1.16,9.29,2.5,13.7,4.66,15.24,19.43,26.91,35.29,28.35a41.12,41.12,0,0,1,6.91,1,7.83,7.83,0,0,1,6.28,8,7.75,7.75,0,0,1-5.63,7.95,19.21,19.21,0,0,1-4.39.88c-24.14,2.42-38.4,16.78-40.89,41.21C-276.59,299.16-279.81,302.79-284.62,302.77ZM-269,243l-15.61-15.28L-300,242.8l15.2,15.75C-280.19,254-273.64,247.52-269,243Z" transform="translate(455.1 -63.89)"/></svg>